<?xml version="1.0" standalone="no"?>
<!DOCTYPE svg PUBLIC "-//W3C//DTD SVG 20010904//EN"
 "http://www.w3.org/TR/2001/REC-SVG-20010904/DTD/svg10.dtd">
<svg version="1.0" xmlns="http://www.w3.org/2000/svg"
 width="158.000000pt" height="158.000000pt" viewBox="0 0 158.000000 158.000000"
 preserveAspectRatio="xMidYMid meet">
<metadata>
Created by potrace 1.11, written by Peter Selinger 2001-2013
</metadata>
<g transform="translate(0.000000,158.000000) scale(0.100000,-0.100000)"
fill="#000000" stroke="none">
<path d="M201 1524 c-64 -32 -106 -86 -121 -157 -8 -36 -10 -223 -8 -612 3
-552 3 -561 25 -600 25 -47 64 -85 113 -111 33 -18 67 -19 580 -19 539 0 545
0 585 22 51 27 89 67 112 118 17 37 18 86 21 600 2 385 -1 574 -8 605 -16 67
-53 116 -113 150 l-52 30 -541 0 -540 0 -53 -26z m508 -671 c47 -133 89 -236
92 -230 4 7 44 117 89 245 l83 233 91 -3 91 -3 3 -337 2 -338 -75 0 -75 0 0
63 c0 34 5 143 10 242 5 99 8 181 6 182 -2 2 -43 -107 -92 -242 l-88 -246 -50
3 -50 3 -88 240 -88 240 7 -242 6 -243 -71 0 -72 0 0 340 0 341 92 -3 91 -3
86 -242z"/>
</g>
</svg>
