<?xml version="1.0" encoding="iso-8859-1"?>
<!-- Generator: Adobe Illustrator 16.0.0, SVG Export Plug-In . SVG Version: 6.00 Build 0)  -->
<!DOCTYPE svg PUBLIC "-//W3C//DTD SVG 1.1//EN" "http://www.w3.org/Graphics/SVG/1.1/DTD/svg11.dtd">
<svg xmlns="http://www.w3.org/2000/svg" xmlns:xlink="http://www.w3.org/1999/xlink" version="1.1" id="Capa_1" x="0px" y="0px" width="512px" height="512px" viewBox="0 0 801.221 801.221" style="enable-background:new 0 0 801.221 801.221;" xml:space="preserve">
<g>
	<g>
		<path d="M49.188,513.807c6.591,18.644,24.317,32.012,45.221,32.012h22.729v38.598c0,8.055,6.527,14.58,14.581,14.58    c8.055,0,14.582-6.525,14.582-14.58v-38.598h508.623v38.598c0,8.055,6.526,14.58,14.58,14.58c8.058,0,14.582-6.525,14.582-14.58    v-38.598h22.729c20.906,0,38.631-13.368,45.224-32.012H49.188L49.188,513.807z" fill="#FFFFFF"/>
		<path d="M799.714,466.824c-12.041-17.979-142.924-46.997-173.044-85.615c-13.749-17.624-18.595-29.105-57.985-95.045    c-46.729-78.219-135.34-84.448-168.075-83.911c-32.727-0.537-121.346,5.692-168.071,83.911    c-39.395,65.94-44.239,77.422-57.989,95.045c-30.12,38.618-162.703,68.027-173.043,85.615c0,0-12.503,15.031,34.516,29.809    h729.174C812.217,481.856,799.714,466.824,799.714,466.824z M261.661,398.755c-15.633,0-28.304-12.671-28.304-28.305    c0-15.633,12.671-28.304,28.304-28.304c15.633,0,28.305,12.671,28.305,28.304C289.965,386.084,277.294,398.755,261.661,398.755z     M361.155,420.193c-15.633,0-28.305-12.67-28.305-28.3c0-15.633,12.671-28.304,28.305-28.304s28.304,12.671,28.304,28.304    C389.46,407.524,376.789,420.193,361.155,420.193z M450.358,420.193c-15.633,0-28.305-12.67-28.305-28.3    c0-15.633,12.672-28.304,28.305-28.304c15.634,0,28.305,12.671,28.305,28.304C478.663,407.524,465.992,420.193,450.358,420.193z     M539.559,398.755c-15.632,0-28.307-12.671-28.307-28.305c0-15.633,12.675-28.304,28.307-28.304    c15.634,0,28.305,12.671,28.305,28.304C567.864,386.084,555.193,398.755,539.559,398.755z" fill="#FFFFFF"/>
	</g>
</g>
<g>
</g>
<g>
</g>
<g>
</g>
<g>
</g>
<g>
</g>
<g>
</g>
<g>
</g>
<g>
</g>
<g>
</g>
<g>
</g>
<g>
</g>
<g>
</g>
<g>
</g>
<g>
</g>
<g>
</g>
</svg>
