<svg width="33" height="33" viewBox="0 0 33 33" fill="none" xmlns="http://www.w3.org/2000/svg">
<path d="M16.5 19.7973L6.65576 16.7673V19.7483V21.8278C6.65576 24.1672 11.0647 26.064 16.503 26.064C21.941 26.064 26.3506 24.1672 26.3506 21.8278C26.3506 21.8094 26.3446 21.7909 26.3442 21.7728V16.7673L16.5 19.7973Z" fill="#F2F2F2"/>
<path d="M0 13.2839L3.51683 14.542L3.81653 13.9001L5.10852 13.7903L5.29273 13.982L4.18408 14.2449L4.0225 14.7231C4.02221 14.7231 1.51825 19.9579 1.88601 22.5188C1.88601 22.5188 3.44898 23.4511 5.01129 22.5188L5.42648 15.517V14.9342L7.75205 14.4096L7.5878 14.8141L5.85387 15.3779L6.65582 15.6644L16.5001 18.6943L26.3442 15.6644L33 13.284L16.5001 6.93604L0 13.2839Z" fill="#F2F2F2"/>
</svg>
