<svg width="33" height="33" viewBox="0 0 33 33" fill="none" xmlns="http://www.w3.org/2000/svg">
<path d="M30.7864 8.62151C29.311 6.09347 27.3096 4.09202 24.7818 2.61671C22.2536 1.14132 19.4936 0.403809 16.4997 0.403809C13.5063 0.403809 10.7454 1.14154 8.2177 2.61671C5.68966 4.09195 3.68836 6.09347 2.2129 8.62151C0.737658 11.1495 0 13.91 0 16.9031C0 20.4985 1.04896 23.7315 3.1474 26.603C5.24562 29.4748 7.95621 31.462 11.2789 32.5647C11.6657 32.6365 11.952 32.586 12.1382 32.4145C12.3244 32.2428 12.4174 32.0277 12.4174 31.7702C12.4174 31.7273 12.4138 31.3407 12.4066 30.6101C12.3992 29.8796 12.3958 29.2422 12.3958 28.6984L11.9016 28.7839C11.5866 28.8416 11.1891 28.866 10.7092 28.8591C10.2296 28.8524 9.73169 28.8022 9.21617 28.7087C8.70042 28.6161 8.22071 28.4012 7.77667 28.0647C7.33286 27.7281 7.01779 27.2875 6.83155 26.7436L6.61672 26.2492C6.47352 25.9201 6.24808 25.5545 5.94009 25.1537C5.6321 24.7525 5.32065 24.4806 5.00558 24.3374L4.85516 24.2297C4.75493 24.1581 4.66192 24.0718 4.57591 23.9717C4.48998 23.8715 4.42564 23.7713 4.38268 23.6709C4.33964 23.5705 4.3753 23.4881 4.49006 23.4234C4.60481 23.3588 4.81219 23.3274 5.11311 23.3274L5.54263 23.3916C5.8291 23.449 6.18344 23.6205 6.60611 23.9071C7.02855 24.1935 7.37582 24.5658 7.648 25.024C7.97758 25.6113 8.37467 26.0589 8.84038 26.3669C9.30571 26.6749 9.77489 26.8286 10.2474 26.8286C10.72 26.8286 11.1281 26.7928 11.472 26.7215C11.8155 26.6499 12.1378 26.5422 12.4387 26.3991C12.5676 25.4391 12.9186 24.7016 13.4913 24.1861C12.675 24.1003 11.9411 23.9711 11.2893 23.7993C10.6378 23.6273 9.96451 23.3481 9.26997 22.961C8.57505 22.5745 7.99858 22.0945 7.54039 21.5218C7.08213 20.9489 6.70604 20.1967 6.41265 19.266C6.1191 18.3348 5.97229 17.2607 5.97229 16.0434C5.97229 14.31 6.53816 12.835 7.66967 11.6175C7.13962 10.3144 7.18966 8.8535 7.81994 7.23506C8.23531 7.10601 8.85129 7.20286 9.66758 7.52499C10.484 7.84728 11.0818 8.12337 11.4615 8.35227C11.8412 8.5811 12.1454 8.77502 12.3746 8.93228C13.7069 8.56003 15.0818 8.37387 16.4996 8.37387C17.9174 8.37387 19.2926 8.56003 20.6249 8.93228L21.4413 8.41691C21.9995 8.07302 22.6588 7.75789 23.4174 7.47142C24.1766 7.1851 24.757 7.10624 25.1582 7.23529C25.8025 8.8538 25.8599 10.3146 25.3297 11.6177C26.4612 12.8353 27.0273 14.3106 27.0273 16.0436C27.0273 17.261 26.8799 18.3385 26.5868 19.2767C26.2934 20.2151 25.914 20.9666 25.4487 21.5326C24.9828 22.0985 24.4027 22.5748 23.7081 22.9613C23.0134 23.348 22.34 23.6272 21.6885 23.7992C21.0367 23.9712 20.3028 24.1005 19.4865 24.1864C20.231 24.8307 20.6033 25.8477 20.6033 27.2369V31.7696C20.6033 32.0271 20.6929 32.2421 20.8721 32.4139C21.0511 32.5854 21.3338 32.6359 21.7206 32.564C25.0438 31.4614 27.7544 29.4742 29.8525 26.6024C31.9504 23.7309 32.9998 20.4978 32.9998 16.9025C32.999 13.9098 32.261 11.1495 30.7864 8.62151Z" fill="#F2F2F2"/>
</svg>
