<svg width="33" height="33" viewBox="0 0 33 33" fill="none" xmlns="http://www.w3.org/2000/svg">
<path d="M10.4228 5.61L8.4565 3.64375C5.1565 6.16 2.984 10.0375 2.7915 14.4375H5.5415C5.74775 10.7937 7.61775 7.60375 10.4228 5.61ZM27.459 14.4375H30.209C30.0028 10.0375 27.8303 6.16 24.544 3.64375L22.5915 5.61C25.369 7.60375 27.2528 10.7937 27.459 14.4375ZM24.7503 15.125C24.7503 10.9037 22.4953 7.37 18.5628 6.435V5.5C18.5628 4.35875 17.6415 3.4375 16.5003 3.4375C15.359 3.4375 14.4378 4.35875 14.4378 5.5V6.435C10.4915 7.37 8.25025 10.89 8.25025 15.125V22L5.50025 24.75V26.125H27.5003V24.75L24.7503 22V15.125ZM16.5003 30.25C16.6928 30.25 16.8715 30.2362 17.0503 30.195C17.944 30.0025 18.6728 29.3975 19.0303 28.5725C19.1678 28.2425 19.2365 27.885 19.2365 27.5H13.7365C13.7503 29.0125 14.974 30.25 16.5003 30.25Z" fill="#F2F2F2"/>
</svg>
