<svg width="33" height="33" viewBox="0 0 33 33" fill="none" xmlns="http://www.w3.org/2000/svg">
<path d="M8.4975 27.4999C10.153 27.4999 11.495 26.1579 11.495 24.5024C11.495 22.8469 10.153 21.5049 8.4975 21.5049C6.84203 21.5049 5.5 22.8469 5.5 24.5024C5.5 26.1579 6.84203 27.4999 8.4975 27.4999Z" fill="#F2F2F2"/>
<path d="M5.5 6.10498V9.99623C15.1663 9.99623 23.0038 17.8337 23.0038 27.5H26.895C26.895 15.6887 17.3113 6.10498 5.5 6.10498ZM5.5 13.8875V17.7787C10.8625 17.7787 15.2213 22.1375 15.2213 27.5H19.1125C19.1125 19.9787 13.0213 13.8875 5.5 13.8875Z" fill="#F2F2F2"/>
</svg>
