<svg width="33" height="33" viewBox="0 0 33 33" fill="none" xmlns="http://www.w3.org/2000/svg">
<path d="M23.0225 6.92086C21.3211 5.19825 19.0516 4.23246 16.6324 4.20099C14.1784 4.16901 11.8583 5.1056 10.0982 6.83777C8.33907 8.56894 7.36623 10.8726 7.35893 13.3246C7.35112 15.9785 8.49391 18.5023 10.4942 20.2488C11.9424 21.5132 12.773 23.3113 12.773 25.1815V29.7987C12.773 31.5638 14.2091 32.9999 15.9742 32.9999H17.0485C18.8135 32.9999 20.2496 31.5638 20.2496 29.7987V25.2406C20.2496 23.3171 21.0643 21.5114 22.485 20.2863C24.505 18.5448 25.6636 16.0173 25.6636 13.3526C25.6636 10.929 24.7258 8.64472 23.0225 6.92086ZM16.5032 17.9922H16.0757C15.8421 17.9922 15.652 17.8021 15.652 17.5682C15.652 17.3346 15.8421 17.1445 16.0757 17.1445C16.3114 17.1445 16.5032 17.3363 16.5032 17.572V17.9922ZM16.5113 21.8229C16.8668 21.8229 17.1558 22.1119 17.1558 22.4674V24.6588H15.8667V22.4674C15.8667 22.1119 16.1558 21.8229 16.5113 21.8229ZM18.9605 25.9479V26.8958H14.0621V25.9479H18.9605ZM14.0621 28.1848H18.9605V29.1327H14.0621V28.1848ZM17.0483 31.7109H15.9742C15.1379 31.7109 14.4259 31.1711 14.1668 30.4218H18.8558C18.5967 31.1711 17.8847 31.7109 17.0483 31.7109ZM21.6433 19.3102C20.0831 20.6554 19.1317 22.5797 18.9814 24.6588H18.4449V22.4674C18.4449 21.8918 18.1918 21.3747 17.7918 21.0202C17.7918 21.0174 17.7923 21.0147 17.7923 21.0117V18.8933C18.3172 18.5166 18.6596 17.9013 18.6596 17.2074V16.2091C18.6596 14.836 17.5425 13.7186 16.1691 13.7186H15.0074C14.6514 13.7186 14.3629 14.0072 14.3629 14.3632C14.3629 14.7192 14.6514 15.0077 15.0074 15.0077H16.1691C16.8318 15.0077 17.3706 15.5467 17.3706 16.2091V16.4463C17.0556 16.0845 16.5921 15.8554 16.0757 15.8554C15.1313 15.8554 14.3629 16.6238 14.3629 17.5685C14.3629 18.5128 15.1313 19.2812 16.0757 19.2812H16.5032V20.534C15.4407 20.5383 14.5777 21.4039 14.5777 22.4674V24.6588H14.0442C13.9029 22.6071 12.9359 20.6692 11.3422 19.2777C9.62309 17.7772 8.64119 15.6087 8.64799 13.3286C8.65428 11.2234 9.49041 9.24444 11.0025 7.75648C12.5154 6.26751 14.5072 5.46235 16.6155 5.49005C20.8938 5.54544 24.3746 9.07273 24.3746 13.3526C24.3746 15.6422 23.3791 17.8134 21.6433 19.3102Z" fill="#F2F2F2"/>
<path d="M16.6413 7.33597H16.6313C16.276 7.33245 15.9867 7.6172 15.9825 7.97295C15.9784 8.32895 16.2667 8.621 16.6227 8.62503H16.6325H16.6403C16.9926 8.62503 17.2773 8.34154 17.2813 7.98805C17.2856 7.63205 16.9974 7.34025 16.6413 7.33597Z" fill="#F2F2F2"/>
<path d="M19.4764 8.09228C19.1652 7.91907 18.7727 8.03085 18.5995 8.34204C18.4265 8.65297 18.5381 9.04548 18.8493 9.2187C20.349 10.0538 21.2806 11.6377 21.2806 13.3525C21.2806 13.7085 21.5691 13.997 21.9251 13.997C22.2811 13.997 22.5697 13.7085 22.5697 13.3525C22.5697 11.1704 21.3843 9.155 19.4764 8.09228Z" fill="#F2F2F2"/>
<path d="M16.5107 3.0293C16.8667 3.0293 17.1553 2.74077 17.1553 2.38477V0.644531C17.1553 0.288528 16.8667 0 16.5107 0C16.1547 0 15.8662 0.288528 15.8662 0.644531V2.38477C15.8662 2.74077 16.1547 3.0293 16.5107 3.0293Z" fill="#F2F2F2"/>
<path d="M29.2188 12.708H27.4785C27.1225 12.708 26.834 12.9965 26.834 13.3525C26.834 13.7085 27.1225 13.9971 27.4785 13.9971H29.2188C29.5748 13.9971 29.8633 13.7085 29.8633 13.3525C29.8633 12.9965 29.5748 12.708 29.2188 12.708Z" fill="#F2F2F2"/>
<path d="M5.54297 12.708H3.80273C3.44673 12.708 3.1582 12.9965 3.1582 13.3525C3.1582 13.7085 3.44673 13.9971 3.80273 13.9971H5.54297C5.89897 13.9971 6.1875 13.7085 6.1875 13.3525C6.1875 12.9965 5.89897 12.708 5.54297 12.708Z" fill="#F2F2F2"/>
<path d="M24.7219 20.6525C24.4701 20.4007 24.062 20.4007 23.8102 20.6525C23.5587 20.904 23.5587 21.3121 23.8102 21.5639L25.0409 22.7945C25.1668 22.9201 25.3317 22.9833 25.4966 22.9833C25.6615 22.9833 25.8264 22.9201 25.9523 22.7945C26.2041 22.5427 26.2041 22.1346 25.9523 21.8829L24.7219 20.6525Z" fill="#F2F2F2"/>
<path d="M8.29927 6.05287C8.42515 6.17875 8.59006 6.24169 8.75497 6.24169C8.91988 6.24169 9.08504 6.17875 9.21068 6.05287C9.46245 5.80135 9.46245 5.39323 9.21068 5.14146L7.98028 3.91081C7.72851 3.65929 7.32039 3.65929 7.06862 3.91081C6.81685 4.16258 6.8171 4.5707 7.06862 4.82247L8.29927 6.05287Z" fill="#F2F2F2"/>
<path d="M25.0408 3.91088L23.8104 5.14128C23.5586 5.39305 23.5586 5.80117 23.8104 6.05294C23.9363 6.17882 24.1012 6.24176 24.2661 6.24176C24.431 6.24176 24.5959 6.17882 24.7218 6.05294L25.9522 4.82228C26.204 4.57051 26.204 4.1624 25.9522 3.91063C25.7007 3.65886 25.2926 3.65911 25.0408 3.91088Z" fill="#F2F2F2"/>
<path d="M8.2996 20.6525L7.0692 21.8829C6.81743 22.1346 6.81743 22.5427 7.0692 22.7945C7.19508 22.9201 7.35999 22.9833 7.5249 22.9833C7.68981 22.9833 7.85472 22.9201 7.98061 22.7945L9.21101 21.5639C9.46278 21.3121 9.46278 20.904 9.21101 20.6525C8.95949 20.4007 8.55137 20.4007 8.2996 20.6525Z" fill="#F2F2F2"/>
</svg>
